<svg id="Layer_1" data-name="Layer 1" xmlns="http://www.w3.org/2000/svg" xmlns:xlink="http://www.w3.org/1999/xlink" viewBox="0 0 1369 632.92"><defs><style>.cls-1{fill:#aeb1af;}.cls-2{font-size:50px;}.cls-2,.cls-7{fill:#fff;}.cls-13,.cls-17,.cls-2,.cls-8{font-family:MyriadPro-Regular, Myriad Pro;}.cls-3{letter-spacing:-0.01em;}.cls-4{letter-spacing:0em;}.cls-5{letter-spacing:0em;}.cls-6{letter-spacing:0.01em;}.cls-20,.cls-8{font-size:73px;fill:#2f2f75;}.cls-9{letter-spacing:0.01em;}.cls-10{letter-spacing:0.02em;}.cls-11{fill:url(#linear-gradient);}.cls-12{fill:url(#linear-gradient-2);}.cls-13{font-size:25px;}.cls-14{letter-spacing:-0.01em;}.cls-15{letter-spacing:-0.01em;}.cls-16{letter-spacing:-0.01em;}.cls-17{font-size:36px;}.cls-18{letter-spacing:0em;}.cls-19{letter-spacing:-0.01em;}.cls-21{letter-spacing:0.02em;}.cls-22{letter-spacing:-0.01em;}.cls-23{letter-spacing:0.02em;}.cls-24{letter-spacing:0.01em;}.cls-25{letter-spacing:-0.01em;}.cls-26{letter-spacing:0em;}</style><linearGradient id="linear-gradient" x1="175.86" y1="454.55" x2="526.81" y2="454.55" gradientUnits="userSpaceOnUse"><stop offset="0" stop-color="#fff"/><stop offset="1"/></linearGradient><linearGradient id="linear-gradient-2" x1="707" y1="454.17" x2="1100.5" y2="454.17" xlink:href="#linear-gradient"/></defs><title>Untitled-1</title><rect class="cls-1" y="0.42" width="1369" height="127"/><text y="0.42"></text><text class="cls-2" transform="translate(734 91.3)">Home / <tspan class="cls-3" x="165.15" y="0">C</tspan><tspan class="cls-4" x="193.6" y="0">o</tspan><tspan class="cls-5" x="221.05" y="0">n</tspan><tspan x="248.6" y="0">ta</tspan><tspan class="cls-6" x="289.25" y="0">c</tspan><tspan x="312.3" y="0">t</tspan></text><rect class="cls-7" x="209.72" y="-28.06" width="141.13" height="298.3" rx="24.17" ry="24.17" transform="translate(46.74 318.18) rotate(-63.47)"/><text class="cls-8" transform="translate(160.83 136.7)"><tspan class="cls-9">G</tspan><tspan x="47.74" y="0">alle</tspan><tspan class="cls-10" x="153.95" y="0">r</tspan><tspan x="179.65" y="0">y</tspan></text><line x1="161" y1="127.42" x2="258.83" y2="0.67"/><rect class="cls-11" x="175.86" y="340.24" width="350.94" height="228.61"/><rect class="cls-12" x="707" y="339.87" width="393.5" height="228.61"/><circle cx="263.83" cy="600.42" r="5"/><circle cx="432" cy="544.3" r="5"/><circle cx="292" cy="325.3" r="5"/><text class="cls-13" transform="translate(310 333.3)">Name</text><text class="cls-13" transform="translate(445 550.05)">D<tspan class="cls-5" x="16.65" y="0">a</tspan><tspan class="cls-14" x="28.6" y="0">t</tspan><tspan x="36.72" y="0">e</tspan></text><text class="cls-13" transform="translate(288.5 596.67)"><tspan class="cls-15">A</tspan><tspan x="15" y="0">dditional </tspan><tspan x="0" y="30">in</tspan><tspan class="cls-16" x="19.72" y="30">f</tspan><tspan x="26.7" y="30">o</tspan></text><circle cx="824.77" cy="592.92" r="5"/><circle cx="1011" cy="549.3" r="5"/><circle cx="854" cy="325.3" r="5"/><text class="cls-13" transform="translate(864.5 333.3)">Name</text><text class="cls-13" transform="translate(1021 555.05)">D<tspan class="cls-5" x="16.65" y="0">a</tspan><tspan class="cls-14" x="28.6" y="0">t</tspan><tspan x="36.72" y="0">e</tspan></text><text class="cls-13" transform="translate(846.77 596.67)"><tspan class="cls-15">A</tspan><tspan x="15" y="0">dditional </tspan><tspan x="0" y="30">in</tspan><tspan class="cls-16" x="19.72" y="30">f</tspan><tspan x="26.7" y="30">o</tspan></text><text class="cls-17" transform="translate(179 229.66)">E<tspan class="cls-18" x="17.71" y="0">n</tspan><tspan class="cls-19" x="37.55" y="0">t</tspan><tspan x="49.25" y="0">er the </tspan><tspan class="cls-20" x="144.25" y="0">G</tspan><tspan x="191.41" y="0">alle</tspan><tspan class="cls-21" x="243.79" y="0">r</tspan><tspan x="256.46" y="0">y </tspan><tspan class="cls-22" x="281.05" y="0">b</tspan><tspan x="301.28" y="0">y clic</tspan><tspan class="cls-23" x="375.04" y="0">k</tspan><tspan x="392.54" y="0">ing on a </tspan><tspan x="0" y="43.2">pi</tspan><tspan class="cls-24" x="28.91" y="43.2">c</tspan><tspan x="45.5" y="43.2">tu</tspan><tspan class="cls-25" x="77.25" y="43.2">r</tspan><tspan class="cls-26" x="88.67" y="43.2">e</tspan></text></svg>